<mxfile host="app.diagrams.net" modified="2023-08-20T01:00:49.165Z" agent="Mozilla/5.0 (Windows NT 10.0; Win64; x64) AppleWebKit/537.36 (KHTML, like Gecko) Chrome/115.0.0.0 Safari/537.36 Edg/115.0.1901.203" etag="CBJsE-0w1GsynWLAWvmh" version="21.6.8" type="device">
  <diagram name="Page-1" id="bWjJ6F1P-epASIhpSugG">
    <mxGraphModel dx="1434" dy="788" grid="1" gridSize="10" guides="1" tooltips="1" connect="1" arrows="1" fold="1" page="1" pageScale="1" pageWidth="827" pageHeight="1169" math="0" shadow="0">
      <root>
        <mxCell id="0" />
        <mxCell id="1" parent="0" />
        <mxCell id="BSH424505XKvK7fOWgT--2" value="MethodSymbol" style="swimlane;whiteSpace=wrap;html=1;" vertex="1" parent="1">
          <mxGeometry x="40" y="40" width="500" height="130" as="geometry" />
        </mxCell>
        <mxCell id="BSH424505XKvK7fOWgT--1" value="CIL code" style="rounded=0;whiteSpace=wrap;html=1;fillColor=#dae8fc;strokeColor=#6c8ebf;" vertex="1" parent="BSH424505XKvK7fOWgT--2">
          <mxGeometry x="10" y="80" width="480" height="40" as="geometry" />
        </mxCell>
        <mxCell id="BSH424505XKvK7fOWgT--3" value="Nodeized instr" style="rounded=0;whiteSpace=wrap;html=1;fillColor=#d5e8d4;strokeColor=#82b366;" vertex="1" parent="1">
          <mxGeometry x="50" y="70" width="60" height="40" as="geometry" />
        </mxCell>
        <mxCell id="BSH424505XKvK7fOWgT--5" value="Nodeized instr" style="rounded=0;whiteSpace=wrap;html=1;fillColor=#d5e8d4;strokeColor=#82b366;" vertex="1" parent="1">
          <mxGeometry x="110" y="70" width="60" height="40" as="geometry" />
        </mxCell>
        <mxCell id="BSH424505XKvK7fOWgT--6" value="Nodeized instr" style="rounded=0;whiteSpace=wrap;html=1;fillColor=#d5e8d4;strokeColor=#82b366;" vertex="1" parent="1">
          <mxGeometry x="170" y="70" width="60" height="40" as="geometry" />
        </mxCell>
        <mxCell id="BSH424505XKvK7fOWgT--7" value="Nodeized instr" style="rounded=0;whiteSpace=wrap;html=1;fillColor=#d5e8d4;strokeColor=#82b366;" vertex="1" parent="1">
          <mxGeometry x="230" y="70" width="60" height="40" as="geometry" />
        </mxCell>
        <mxCell id="BSH424505XKvK7fOWgT--9" value="" style="rounded=0;whiteSpace=wrap;html=1;fillColor=#d5e8d4;strokeColor=#82b366;" vertex="1" parent="1">
          <mxGeometry x="470" y="70" width="60" height="40" as="geometry" />
        </mxCell>
        <mxCell id="BSH424505XKvK7fOWgT--10" value="" style="rounded=0;whiteSpace=wrap;html=1;fillColor=#d5e8d4;strokeColor=#82b366;" vertex="1" parent="1">
          <mxGeometry x="290" y="70" width="60" height="40" as="geometry" />
        </mxCell>
        <mxCell id="BSH424505XKvK7fOWgT--11" value="" style="rounded=0;whiteSpace=wrap;html=1;fillColor=#d5e8d4;strokeColor=#82b366;" vertex="1" parent="1">
          <mxGeometry x="410" y="70" width="60" height="40" as="geometry" />
        </mxCell>
        <mxCell id="BSH424505XKvK7fOWgT--12" value="" style="rounded=0;whiteSpace=wrap;html=1;fillColor=#d5e8d4;strokeColor=#82b366;" vertex="1" parent="1">
          <mxGeometry x="350" y="70" width="60" height="40" as="geometry" />
        </mxCell>
        <mxCell id="BSH424505XKvK7fOWgT--26" value="Nodeization" style="swimlane;whiteSpace=wrap;html=1;" vertex="1" parent="1">
          <mxGeometry y="200" width="700" height="300" as="geometry" />
        </mxCell>
        <mxCell id="BSH424505XKvK7fOWgT--14" value="..." style="rounded=0;whiteSpace=wrap;html=1;fillColor=#dae8fc;strokeColor=#6c8ebf;" vertex="1" parent="BSH424505XKvK7fOWgT--26">
          <mxGeometry x="10" y="40" width="100" height="40" as="geometry" />
        </mxCell>
        <mxCell id="BSH424505XKvK7fOWgT--30" style="edgeStyle=orthogonalEdgeStyle;rounded=0;orthogonalLoop=1;jettySize=auto;html=1;exitX=0.5;exitY=1;exitDx=0;exitDy=0;entryX=0.5;entryY=0;entryDx=0;entryDy=0;" edge="1" parent="BSH424505XKvK7fOWgT--26" source="BSH424505XKvK7fOWgT--15" target="BSH424505XKvK7fOWgT--29">
          <mxGeometry relative="1" as="geometry" />
        </mxCell>
        <mxCell id="BSH424505XKvK7fOWgT--32" style="edgeStyle=orthogonalEdgeStyle;rounded=0;orthogonalLoop=1;jettySize=auto;html=1;exitX=0.5;exitY=1;exitDx=0;exitDy=0;entryX=0.547;entryY=0.233;entryDx=0;entryDy=0;entryPerimeter=0;" edge="1" parent="BSH424505XKvK7fOWgT--26" source="BSH424505XKvK7fOWgT--15" target="BSH424505XKvK7fOWgT--27">
          <mxGeometry relative="1" as="geometry" />
        </mxCell>
        <mxCell id="BSH424505XKvK7fOWgT--15" value="CALL" style="rounded=0;whiteSpace=wrap;html=1;fillColor=#dae8fc;strokeColor=#6c8ebf;" vertex="1" parent="BSH424505XKvK7fOWgT--26">
          <mxGeometry x="110" y="40" width="50" height="40" as="geometry" />
        </mxCell>
        <mxCell id="BSH424505XKvK7fOWgT--17" value="..." style="rounded=0;whiteSpace=wrap;html=1;fillColor=#dae8fc;strokeColor=#6c8ebf;" vertex="1" parent="BSH424505XKvK7fOWgT--26">
          <mxGeometry x="160" y="40" width="100" height="40" as="geometry" />
        </mxCell>
        <mxCell id="BSH424505XKvK7fOWgT--23" value="..." style="rounded=0;whiteSpace=wrap;html=1;fillColor=#d5e8d4;strokeColor=#82b366;" vertex="1" parent="BSH424505XKvK7fOWgT--26">
          <mxGeometry x="390" y="200" width="90" height="40" as="geometry" />
        </mxCell>
        <mxCell id="BSH424505XKvK7fOWgT--24" value="Nodeized call" style="rounded=0;whiteSpace=wrap;html=1;" vertex="1" parent="BSH424505XKvK7fOWgT--26">
          <mxGeometry x="480" y="200" width="90" height="40" as="geometry" />
        </mxCell>
        <mxCell id="BSH424505XKvK7fOWgT--25" value="..." style="rounded=0;whiteSpace=wrap;html=1;fillColor=#d5e8d4;strokeColor=#82b366;" vertex="1" parent="BSH424505XKvK7fOWgT--26">
          <mxGeometry x="565" y="200" width="105" height="40" as="geometry" />
        </mxCell>
        <mxCell id="BSH424505XKvK7fOWgT--20" value="..." style="rounded=0;whiteSpace=wrap;html=1;fillColor=#dae8fc;strokeColor=#6c8ebf;" vertex="1" parent="BSH424505XKvK7fOWgT--26">
          <mxGeometry x="10" y="230" width="100" height="40" as="geometry" />
        </mxCell>
        <mxCell id="BSH424505XKvK7fOWgT--35" style="edgeStyle=orthogonalEdgeStyle;rounded=0;orthogonalLoop=1;jettySize=auto;html=1;exitX=0.5;exitY=1;exitDx=0;exitDy=0;entryX=0.5;entryY=1;entryDx=0;entryDy=0;dashed=1;" edge="1" parent="BSH424505XKvK7fOWgT--26" source="BSH424505XKvK7fOWgT--21" target="BSH424505XKvK7fOWgT--24">
          <mxGeometry relative="1" as="geometry" />
        </mxCell>
        <mxCell id="BSH424505XKvK7fOWgT--21" value="Node[4]" style="rounded=0;whiteSpace=wrap;html=1;fillColor=#dae8fc;strokeColor=#6c8ebf;" vertex="1" parent="BSH424505XKvK7fOWgT--26">
          <mxGeometry x="110" y="230" width="50" height="40" as="geometry" />
        </mxCell>
        <mxCell id="BSH424505XKvK7fOWgT--22" value="..." style="rounded=0;whiteSpace=wrap;html=1;fillColor=#dae8fc;strokeColor=#6c8ebf;" vertex="1" parent="BSH424505XKvK7fOWgT--26">
          <mxGeometry x="160" y="230" width="100" height="40" as="geometry" />
        </mxCell>
        <mxCell id="BSH424505XKvK7fOWgT--33" style="edgeStyle=orthogonalEdgeStyle;rounded=0;orthogonalLoop=1;jettySize=auto;html=1;exitX=0.5;exitY=1;exitDx=0;exitDy=0;entryX=0.5;entryY=0;entryDx=0;entryDy=0;" edge="1" parent="BSH424505XKvK7fOWgT--26" source="BSH424505XKvK7fOWgT--27" target="BSH424505XKvK7fOWgT--24">
          <mxGeometry relative="1" as="geometry" />
        </mxCell>
        <mxCell id="BSH424505XKvK7fOWgT--27" value="Create node" style="rounded=1;whiteSpace=wrap;html=1;" vertex="1" parent="BSH424505XKvK7fOWgT--26">
          <mxGeometry x="180" y="130" width="95" height="30" as="geometry" />
        </mxCell>
        <mxCell id="BSH424505XKvK7fOWgT--31" style="edgeStyle=orthogonalEdgeStyle;rounded=0;orthogonalLoop=1;jettySize=auto;html=1;exitX=0.5;exitY=1;exitDx=0;exitDy=0;entryX=0.5;entryY=0;entryDx=0;entryDy=0;" edge="1" parent="BSH424505XKvK7fOWgT--26" source="BSH424505XKvK7fOWgT--29" target="BSH424505XKvK7fOWgT--21">
          <mxGeometry relative="1" as="geometry" />
        </mxCell>
        <mxCell id="BSH424505XKvK7fOWgT--29" value="Patch cil code" style="rounded=1;whiteSpace=wrap;html=1;" vertex="1" parent="BSH424505XKvK7fOWgT--26">
          <mxGeometry x="40" y="130" width="90" height="30" as="geometry" />
        </mxCell>
      </root>
    </mxGraphModel>
  </diagram>
</mxfile>
